<svg xmlns="http://www.w3.org/2000/svg"  viewBox="0 0 64 64" width="64px" height="64px" baseProfile="basic"><ellipse cx="32" cy="61" opacity=".3" rx="19" ry="3"/><path fill="#fd3c4f" d="M32.002,4C21.726,4,13.43,10.067,13.43,24.429S21.726,56,32.002,56s18.571-17.21,18.571-31.571 S42.278,4,32.002,4z"/><path fill="#9c34c2" d="M45.543,19.197c-1.581,3.249-5.036,7.929-12.551,12.041c0.559,5.684,5.536,8.843,7.965,10.059 c0.764,0.383,1.688,0.222,2.293-0.383l0.39-0.39c8.593-8.514,7.471-16.568,5.571-21.236C48.552,17.668,46.308,17.624,45.543,19.197 z M20.24,40.4l0.402,0.402c0.599,0.599,1.513,0.763,2.275,0.392c2.426-1.184,7.412-4.297,7.971-10.079 c-7.436-4.037-10.862-8.681-12.432-11.917c-0.763-1.573-3.005-1.535-3.668,0.083C12.877,23.938,11.725,31.964,20.24,40.4z"/><path fill="#9c34c2" d="M33.364,31.981L44.383,8.21c-0.619-0.495-1.362-1.114-1.981-1.486l-10.4,22.286l-10.4-22.286 c-0.743,0.495-1.362,0.99-1.981,1.486L30.64,31.981l-8.543,18.448c0.619,0.743,1.238,1.362,1.857,1.981l8.048-17.457l8.048,17.333 c0.619-0.619,1.238-1.238,1.857-1.981L33.364,31.981z"/><path fill="#9c34c2" d="M18.878,22.448l-1.114-2.229c0,0,4.705-2.352,4.21-6.19l-0.248-1.857l1.733,0.495 c4.952,1.238,7.305-1.857,7.305-1.981l1.981,1.486c-0.124,0.124-2.848,3.962-8.419,3.219 C24.078,19.971,19.126,22.324,18.878,22.448z"/><path fill="#9c34c2" d="M45.126,22.448c-0.248-0.124-5.2-2.476-5.695-7.057c-5.571,0.619-8.295-3.095-8.419-3.219 l1.981-1.486c0.124,0.124,2.476,3.219,7.305,1.981l1.733-0.495l-0.124,1.857c-0.495,3.838,4.21,6.19,4.21,6.19L45.126,22.448z"/><path fill="#9c34c2" d="M33.24,55.876c-0.371,0-0.867,0.124-1.238,0.124c-0.371,0-0.867,0-1.238-0.124V4 c0.371,0,0.867,0,1.238,0c0.371,0,0.867,0,1.238,0V55.876z"/><path fill="#9c34c2" d="M30.764,51.419c0,0-1.61-4.829-4.705-4.086l-0.495-2.476c4.333-0.867,6.81,3.343,7.676,5.819 L30.764,51.419z"/><path fill="#9c34c2" d="M33.24,51.419l-2.476-0.743c0.743-2.352,3.343-6.686,7.676-5.819l-0.495,2.476 C34.726,46.59,33.24,51.419,33.24,51.419z"/><path fill="#fff" d="M35.716,32.476c0,0,10.771-6.19,11.514-12.381c1.238,3.838,2.105,10.895-5.324,18.571 C36.211,35.2,35.716,32.476,35.716,32.476z M22.097,38.667c-7.429-7.676-6.562-14.733-5.324-18.571 c0.867,6.19,11.514,12.381,11.514,12.381S27.792,35.2,22.097,38.667z"/><path fill="none" stroke="#fff" stroke-linecap="round" stroke-linejoin="round" stroke-miterlimit="10" stroke-width="3" d="M19.697,13.341c1.538-2.344,3.699-4.01,6.44-4.948"/><g><path d="M48.562,37.375c-2.472-0.897-5.246,0.262-6.296,2.713c-2.566,5.995-6.153,10.141-9.362,10.816 c-2.246,0.473-3.798,2.391-3.938,4.575c0.747,0.247,1.506,0.418,2.28,0.482C31.509,55.989,31.775,56,32.002,56 C39.245,56,45.499,47.45,48.562,37.375z" opacity=".15"/><path fill="#fff" d="M35.737,4.321c-0.816-0.131-1.645-0.233-2.497-0.275V4c-0.371,0-0.867,0-1.238,0 c-0.371,0-0.867,0-1.238,0v0.047C22.161,4.47,15.188,9.358,13.726,20.081c0.381,0.09,0.764,0.151,1.143,0.151 c2.049,0,3.971-1.269,4.704-3.308c1.78-4.945,5.628-7.599,11.437-7.884C33.578,8.915,35.597,6.86,35.737,4.321z" opacity=".3"/></g></svg>